<?xml version="1.0" encoding="UTF-8"?>
<svg id="Layer_2" data-name="Layer 2" xmlns="http://www.w3.org/2000/svg" viewBox="0 0 619.66 850.49">
  <g id="Layer_1-2" data-name="Layer 1">
    <g>
      <g>
        <path d="M3.85,0l612.68.33c2.11,1.4,3.36,3.25,3.08,5.91v438.68c-5.98,137.6-117.46,246.55-249.63,269.87C198.92,744.98,22.36,639.02,1.17,460.85-1.19,309.75.88,158.43.12,7.25-.07,4.79,1.31.76,3.85,0ZM602.57,16.79H17.15v430.08c0,.36,1.02,1.62,1.17,2.34,21.38.2,42.88.26,64.31.2,158.4-.42,317.78-2.09,476.45,0,12.07.16,28.48,1.17,40.05.01,1.09-.11,2.24.06,2.95-1-.39-1.21.5-2.8.5-3.54V16.79ZM600.57,465.36l-581.44,1.51c12.78,84.76,65.88,156.44,140.21,197.47,125.96,69.52,292.52,43.83,384.27-68.63,30.25-37.08,50.49-82.71,56.97-130.34Z"/>
        <path d="M136.03,445.37c-1.05-.94,9.19-17.06,10.58-18.89,7.74-10.24,19.5-19.46,27.36-29.58,3.62-4.66,5.27-10.16,9.48-14.49,9.42-9.67,27.02-14.46,37.56-23.38l1.94-17.04c-7.8-2.49-6.6,14.09-7.46,15.46-.57.9-11.04,5.91-12.72,6.32-12.02,2.91-22.36-3.4-33.29-3.4-7.11,0-19.75,15.92-21.7,22.34-1.09,3.58-1.33,18.13-3.3,18.7-2.27.66-3.84-3.11-4.98-1.01-1.6,3.58.92,10.84-1.38,13.61-1.34,1.62-4.11,1.27-5.79,2.2-4.48,2.49-8.35,6.83-14.19,6.1-3.06-2.11,2.07-20.32,3.18-24.1,5.94-20.14,21.79-36.43,32.62-54.29,7.12-6.05,31.65-.99,41.03-.95l-16.82-18.14c-13.43-19.48-13.87-45.17-7.16-67.26-11,4.11-24.96,1.06-32-8.5-.02-3.66,13.99-9.5,17.49-10.52,8.25-2.4,14.33-1.64,22.5,1.03.5-5.19-5.41-5.91-9.22-7.26-6.04-2.13-23.66-7.62-29.28-7.76-5.98-.15-16.86,4.88-24.05,5.91-14.76,2.1-43.95-.24-48.88-17.84-3.24-11.56,11.9.32,15.18,1.83,11.45,5.26,22.24,4.07,34.32,2.13-5.11-3.77-23.37-22.42-21.92-28.39,2.01-8.28,18.71,9,20.45,10.38,5.98,4.77,12.63,8.98,20.45,10.02.3-6.54-.59-13.54-2.71-19.76-1.28-3.74-8.28-13.64-8.3-14.73-.07-5.82,9.27.16,11.34,1.7,17.73,13.17,5.93,38.86,32.4,42.52,13.02,1.8,15.25-9.36,14.22-20.21-.35-3.63-3.23-9.5-3.02-11.99.39-4.83,6.92-1.11,9.08.95,6.7,6.37,8.78,22.15,4.95,30.51,14.96-2.21,18.94-14.8,20.99-27.96,10.67,1.84,8.71,17.63,4.8,25.29-4.68,9.18-12.57,11.58-21.45,14.56-1.55.52-2.86-.88-2.34,2.1,9.97-2.26,17.78,2.7,26.46,4.01,6.01.91,14.62,1.4,21,1.98,4.38.4,16.85-1.99,17.14,3.6.92,17.52-8.75,16.01-22.65,17.4,1.63,3.37,15.69,2.53,16.94,4.03.66,9.24-10.48,6.22-17.16,8.23-5.24,1.57-10.04,5.98-15.76,6.73,6.01,13.37,19.43,9.05,30.42,8.93,21.49-.23,39.8,3.03,61.31-1.63,46.39-10.04,78.08-23.47,114.58,18.64,1.68,1.94,9.68,10.79,7.47,13l-12.99-2.48c5.41,14.48,7.69,35.77,23.31,42.63,4.55,2,15.44,3.28,17.76,5.22s10.49,22.58,13.37,27.59c8.82,15.35,14.15,13.88,23.98,23.97,4.45,4.57,6.38,11.89-2.32,11.12-3.22,1.98,4.02,12.06-1.44,17.56-.24.24-3.98,2.27-4.22,2.27h-21.48c-1.17-4.61,7.3-12.29,7.74-14.6,1.02-5.29-10.12-21-13.51-26.08-6.21-9.32-14.54-23.22-25.4-26.55-26.43-8.1-50.79-5.39-71.7-29.2l-8.51-11.47c-3.09,3.33,6.43,14.14,5.48,14.99-20.71-.25-39.38,11.09-58.94,16.49-13.67,3.77-27.72,6.3-41.95,5.49.3-2.54.9-4.83,1.04-7.44.09-1.61.73-6.85-1.04-7.54-3.12,24.55-23.8,21.67-42.19,26.25-5.45,1.36-18.04,4.88-22.47,7.5-4.19,2.48-20.75,21.36-23.11,25.84-3,5.7-.57,15.25-7.12,15.3l-2.66-4.86c-4.98.31-3.95,6.67-5.97,10.77-.82,1.67-4.16,6.09-5.89,6.09h-19.48ZM218.95,245.58c-2.2-.1-15.84-4.13-15.96-.52,2.37,5.58,10.02,5.37,14.68,2.74,1.12-.63,1.71.07,1.28-2.22Z"/>
        <path d="M334.34,178.63c-.37-.02-1.85-2.54-1.49.48.94,7.92,4.33,16.69,4.97,25.01.33,4.29,1.75,16.67-3.35,16.43-8.15-.37-13.06-5.36-22.1,1.04-9.47,6.7-3.21,7.67-2.55,14.6.59,6.22-3.09,10.6-7.45,14.36-5.36-23.12-6.01-9.12-15.12-4.13-10.09,5.52-.93-9.81-2.82-12.85-4.15-6.7-12.22,5.74-15.99,5-4.65-.92,4.31-16.81-9.94-14.89-6.37.86-8.59,5.35-13.06,8.9-12.1-19.87,18.98-18.82,29.26-27.16l-2.81-24.28c-19.35-8.52-36.73-24.51-58.57-26.35-16.65-1.4-30.16,4.32-40.97,16.78-8.55-3.9-3.89-15.8-1.24-22.28,2.48-6.05,3.87-9.51,6.1-15.88,7.21-20.62,43.43-23.22,61.71-22.71.45-1.73-.72-2-1.49-3-5.54-7.24-20.69-15.16-29.21-18.74-6.62-2.78-28.92-8.11-32.22-10.74-6.53-5.21,1.73-12.49,6.98-14.97,25.81-12.18,60.43-.46,86.92,4.51-1.91,13.84-3.94,25.48-10.48,37.97-.57,1.09-6.91,9.09-3.04,7.96,12-3.49,18.75-23.52,20.38-34.57,2.48-16.86-4.27-32.3,15.89-39.05,15.27-5.12,33.7-4.61,49.65-5.29,52.08-2.24,104.61-.38,156.85-.99-1.73,7.61-8.08,13.16-15.21,15.76-25.9,5.82-53.63,4.37-80.19,5.23l70.92,9.99c-3.64,9.49-13.89,14.11-23.49,14.96-19.35,1.73-40.17-1.29-59.42-2.97l46.95,13.99c-16.39,19.54-46.17,10.94-67.93,6.99,3.94,3,9.69,5.19,14.31,7.16s8.99,3.63,13.66,4.83c1.53,2.12-7.32,6.81-9,7.47-11.47,4.51-24.19,2.3-35.95.52,2.21,3.06,8.42,3.42,10.98,5.49,1.63,1.32.17,2.02-1.05,2.93-8.28,6.14-19.97,7.07-29.91,6.56,4,3.89,11.11,5.98,16.47,8,34.23,12.93,72.39,18.72,108.75,22.12l1.65,1.39c-1.04,5.19-6.53,10.38-11.29,12.62-1.08.51-7.61,2.81-8.18,2.81h-16.48l18.91,8.07c-1.82,11.99-15.92,13.64-25.9,10.92l8.97,6.48c-3.23,3.61-8.29,7.9-13.48,7.58-3.74-.23-24.96-17.4-30.15-20.88-8.88-5.96-17.29-13.17-27.79-13.17-6.96,0-14.04.3-20.98,0ZM195.97,136.68c-1.29-1.46-10.43,6.68-8.98,7.98,5.51-.47,10.15-1.35,8.98-7.98ZM275.89,217.6c3.26,4.45,11.19,4.61,16.25,3.75,3.21-.55,15.06-7.13,16.26-9.78,1.64-3.63-8.51-15.82-11.52-18.95,5.75,17.28-6.92,21.95-20.99,24.99Z"/>
        <path d="M324.85,444.37c.93-8.58,9.05-19.73,16.66-23.8,2.61-1.39,5.52-1.7,7.99-3,9.7-5.08,17.89-17.72,25.26-25.7l.03-1.43c-5.12-2.97-11-8.89-14.95-13.54-2.29-2.7-11.22-14.41-12-16.97-.62-2.03.57-1.24,1.49-1.46,5.18-1.21,16.77-4.11,21.23-2.26,2.16.9,6.24,5.38,8.93,7.04,2.93,1.81,17.38,8.67,18.03,9.45.82.98,6.42,16.74,6.26,18.13-.52,4.48-19.86,17.42-24.45,21.6-7.31,6.65-13.78,13.02-16.65,22.79l-8.86-1.41c-1.99,2.98-5.14,10.56-9.48,10.56h-19.48Z"/>
        <path d="M303.87,562.76c-.35-1.21-10.39-7.32-12.39-9.59-3.72-4.22-8.12-13.92-4.09-18.87,4.9,4.48,12.55,8.1,15.5,13.97,2.01,1.44,1.83-8.01.71-9.72-1.47-2.25-14.83-7.34-16.5-12.96-.57-1.92-.8-14.31,1.29-14.26l14,12.96c2.31.97,1.69-5.47,1.56-6.52-.2-1.71-9.93-6.82-12.5-10.52-2.85-4.12-8.14-23.16.44-18.47,2.41,1.32,8.43,12.5,11.97,14.53.2-5.4-.19-22.71,2.93-26.54,8.73-10.69,8.94,22.84,9.07,26.54,3.69-1.88,10.41-16.81,14.97-14.55,3.96,1.96.55,13.86-1.12,16.92-2.87,5.25-11.09,7.85-13.85,11.13-1.42,1.69-2.05,9.54.48,8.48l16.49-13.97c2.76,15.38-5.58,21.75-17.77,28.17l-.2,8.79,15.66-12.82,2.31-.16c4.07,14.1-8.81,20.92-17.97,28.47v27.47c2.35.48,1.6-.3,2.24-1.29,10.18-15.85,14.35-23.11,29.26-35.65,2.28-1.92,9.45-5.97,10.53-7.46,4.83-6.7.83-28.84,16.91-30.53.7,6.54-.74,12.79-1.26,19.22-.05.66-1.81,2.6.74,1.74,10.66-3.61,2.22-14.72,7.2-22.68,1.05-1.68,12.34-10.34,13.3-9.27l-2.5,21.97,6.01-3.98c-.04-13.83,2.57-24.85,17.47-27.97.79.72-6.3,17.68-3.5,20.97.83-1.27,3.69-1.4,4.28-2.22,1.15-1.59,2.07-13.97,4.17-18.3,1.55-3.2,9.86-10.2,13-11.01,1.11-.29,1.72.33,1.96,1.19,1.26,4.65-4.27,14-4.91,18.88-.41,3.15,7.55-1.33,7.8-1.71,1.71-2.64.32-12.06,4.53-16.45,2.38-2.48,17.07-9.35,17.51-3.86l-8.85,14.5c1.1,1.06,21.98-12.63,28.24-10.82s-.59,8.07-3.36,10.24c-5.85,4.56-12.95,5.93-18.89,10.08l17.89,3.58c3.21,4.78-9.97,8.83-13.39,8.98-10.27.43-17.33-7.72-26.48-3.06,1.78,3.5,19.02,5.12,18.96,8.48-6.27,4.79-11.12,6.31-19.01,5.04-7.47-1.2-12.18-7.44-18.93-3.53-.41,2.55.22,1.55,1.4,2.08,3.73,1.68,8.64,2.82,12.56,4.44,1.17.48,4.69,1.23,4.02,2.95-2.73,6.96-17.52,5.51-23.23,3.27-6.56-2.57-7.35-6.97-14.72-1.74l19.95,9.48c-9.21,7.37-15.11,5.84-25.22,2.26-5.51-1.95-8.55-6.49-13.72.23l19.98,7.02c.89,1.13-7.85,5.23-8.98,5.49-9.72,2.25-17.27-2.84-25.93-5.03-15.66,11.26-31.52,25.91-38.02,44.48,15.69-7.64,32.17-13.59,49.74-15.19,5.94-11.07,13.96-19.08,27.17-19.76,1.9,1.93-7.24,13.11-7.97,15.5-.57,1.85.35,1.35,1.48,1.5,6.56.86,6.39-4.94,9.46-9.54,5.92-8.87,9.73-11.14,21-10.46l-10.98,17.48c.98.56,7.22-.33,7.8-.69.48-.31,3.81-8.03,5.36-10.13,5.7-7.71,11.32-9.09,20.8-8.66l-11.98,17.48c8.36,2.34,8.09-3.31,12.01-7.97,6.81-8.1,12.4-11.19,23.45-10.52l-11.48,16.98c8.22,1.61,7.48-2.52,11.47-7,6-6.74,12.53-11.42,22.02-8,2.27,3.08-9.31,11-10.52,14,5.77.41,24.69-3.09,28.56-.08,10.33,8.04-22.46,12.43-26.56,11.09-2.21,1.97,9.58,7.51,10.33,9.26,2.78,6.48-10.12,5.08-13.88,3.77-6.54-2.29-9.61-10.1-12.44-11.59-2.46-1.3-5.31,1.49-7.98-.45-2,2.36,15.06,13.33,14.98,16.98h-15.48c-.64,0-8.86-6.86-10.04-7.95-4.72-4.33-4.18-8.92-13.44-7.03-.37,1.61.55,2.04,1.46,3.02,2.47,2.67,13.11,9.79,14.03,11.96l-1.01,2h-14.99c-3.98,0-14.87-19.24-22.48-14.98,3.74,6.49,13.02,9.93,14.99,16.97h-14.49c-.69,0-3.17-2.3-4.02-2.97-5.01-3.93-11.04-16.34-17.46-10.03,3.2,1.51,10.15,8.54,12.03,11.46.79,1.23,1.24,1.99.95,3.54-9.7,1.17-15.13-1.27-22.44-7.02-1.87-1.47-5.07-5.81-6.54-6.44-7.59-3.25-35.24,6.58-42.96,10.95-.83.47-12.32,7.5-8.46,7.52,15.71-6.75,44.62-3.53,46.36,17.6,1.48,18.05-18.48,22.15-31.86,15.83l-17-10.46c-1.95,2.05,19.1,34.08,23.47,36.98,1.86,6.01-1.74,9.57-7.78,7.76-2.66-.79-9.29-10.98-11.11-13.86-4.52-7.14-7.48-15.13-12.56-21.89l.85,36.32-1.5,1.5-9.41-.3c-2.72-1.89,1.58-32.17.05-37.53-5.34,5.99-17.36,34.59-24.5,35.95-5.94,1.13-9.04-2.18-6.94-7.97,10.05-10.62,17.86-23.53,23.46-36.97l-13.63,8.84c-9.91,6.12-31.62,7.26-34.89-6.78-6.05-25.96,26.96-32.96,45.52-25.05,1.53-1.52-7.26-6.57-8.31-7.16-12.44-7.09-27-10.06-41.08-11.85-9.64,7.67-16.52,16.67-30.52,14.01l12.98-15.48-6.52-.57c-1.56.19-9.53,11.06-13.18,12.84-3.33,1.62-9.97,1.65-13.67,1.13-1.03-.14-4.47-.63-3.58-2.39l14.98-13c-8.3-4.89-10.77,3.68-16.45,8.52-1.12.96-4.65,4.06-5.56,4.43-2.31.93-16.76,1.54-15.46-1.46,3.33-4.58,9.47-8.12,13.03-11.96.91-.98,1.83-1.42,1.46-3.02-2.3.08-4.76-.49-6.97.51-2.52,1.14-13.43,14.47-15.5,14.47h-15.48c-.26-1.77-.06-2.19,1.04-3.46,3.29-3.8,10.23-7.56,12.95-12.52-9.77-3.86-11.85,7.79-19.69,10.77-4.25,1.62-17.38,3.13-13.78-3.79.69-1.33,11.65-7.05,9.49-8.98-5.22.48-23.29-1.28-26.04-5.43-7.19-10.89,23.97-5.35,29.04-5.57-1.56-3.71-17.59-13.85-7.53-15.03,8.16-.96,12.98,2.45,18.03,8.04,4.65,5.15,3.82,9.83,13.47,7.99l-12.98-16.97c9.04-.36,14.75.87,20.95,7.52,2.21,2.37,5.47,8.58,7.05,9.93s8.16,2.9,6.96.04c-.82-1.94-13.89-14.75-11.98-16.49,5.77.72,13.05.39,17.63,4.34,3.82,3.29,6.95,12.05,9.37,14.11,1.47,1.25,8.07,2.97,6.95.05l-10.96-16c1.35-2.12,1.68-.86,2.76-.81,11.25.51,13.84,2.54,19.37,11.64,3.64,5.99,1.37,8.86,10.34,9.64,1.36-.57.11-1.87-.32-2.68-2.08-3.88-5.78-8.82-7-12.99-.42-1.44-.87-2.51,1.14-2.15,4.35.77,9.98,2.85,13.57,5.43,4.57,3.28,10.09,12.82,12.78,14.19,4.08,2.09,16.52,3.11,22.27,4.71,9.33,2.6,16.02,6.45,24.47,10.51,1.14.55,2.25,1.38,2.51-.55.4-2.99-14.5-23.19-17.47-26.47-6.1-6.72-13.56-11.78-20.54-17.52-5.87,1.32-11.46,4.82-17.55,5.44s-9.38-.63-14.41-3.41c-1.13-.62-2.44.07-1.96-1.96l18.97-7.52c-5.76-7.74-11.12-.53-18.03,1.46-8.62,2.49-13.69,1.53-20.91-3.95l19.96-9.48c-2.34.17-5.4-3.14-7.31-2.8-1.53.27-7.41,4.63-10.39,5.56-8.05,2.5-13.6.38-20.25-4.28-.8-1.71,2.91-2.39,4.04-2.93,4.2-2.03,9.31-3.79,13.94-4.56,1.41-1.48-4.28-4.71-5.49-4.64-.84.05-9.66,5.49-13.44,6.19-7.18,1.33-14.83.54-19.02-6.03.47-1.95,19.62-5.34,17.98-7.49-7.61-4.6-8.43-.84-15.2,1.27-8.77,2.73-19.4,2.64-24.75-5.76.7-3,14.96-3.29,17.98-5.01-4.26-3.39-9.71-4.87-14.28-7.69-3.37-2.07-13.51-7.75-8.28-11.88,5.63-4.46,28.1,11.48,29.55,10.08l-9.05-15.37c3.96-3.82,15.3,2.56,17.91,6.03,4.66,6.2.05,18.26,12.13,18.33l-5.91-20.33,2.27-1.52c8.64,4.46,12.46,8.51,15.14,17.86,1.87,6.52-.42,12.95,8.48,13.99.65-.64-4.5-14.89-4.91-17.57-.22-1.44-.84-4.03,1.38-3.38,13.39,3.92,16.52,16.19,16.72,28.75l5.78,3.19c.58-.76-2.71-15.73-2.97-18.51-.12-1.31-.69-4.3,1.46-3.46,2.4.94,11.09,8.27,12.28,10.71,2.27,4.67,1.16,13.69,2.38,19.1l5.83,2.14c.26-.21-2-5.61-2-6.48v-15.48c3.72,2.43,8.52,4.64,10.84,8.64,3.62,6.24,3.2,18.47,6.66,23.31,1.65,2.31,8.22,5.67,10.94,8.04,9.69,8.4,18.73,18.55,25.33,29.62,1.37,2.3,1.19,6.88,4.17,6.32v-28.47ZM338.63,624.49c-1.81.14-10.77,1.56-10.76,3.2,3.69,6.3,28.21,18.98,32.46,10.51,5.57-11.09-14.62-14.24-21.7-13.71ZM259.18,638.93c7.1,7.53,27.36-4.82,32.68-11.23.09-2.62-29.92-6.52-33.54,5.46-.55,1.83-.51,4.32.86,5.77Z"/>
      </g>
      <g>
        <path d="M179.52,848.98h-19.51l-7.76-20.18h-35.51l-7.33,20.18h-19.03l34.6-88.83h18.97l35.57,88.83ZM146.5,813.83l-12.24-32.96-12,32.96h24.24Z"/>
        <path d="M189.1,848.98v-88.83h37.75c9.49,0,16.39.8,20.69,2.39,4.3,1.6,7.75,4.43,10.33,8.51,2.58,4.08,3.88,8.75,3.88,14,0,6.67-1.96,12.17-5.88,16.51-3.92,4.34-9.78,7.08-17.57,8.21,3.88,2.26,7.08,4.75,9.6,7.45,2.52,2.71,5.93,7.51,10.21,14.42l10.85,17.33h-21.45l-12.97-19.33c-4.6-6.91-7.76-11.26-9.45-13.06-1.7-1.8-3.49-3.03-5.39-3.7-1.9-.67-4.91-1-9.03-1h-3.64v37.08h-17.94ZM207.03,797.72h13.27c8.6,0,13.98-.36,16.12-1.09,2.14-.73,3.82-1.98,5.03-3.76s1.82-4,1.82-6.67c0-2.99-.8-5.4-2.39-7.24-1.6-1.84-3.85-3-6.76-3.48-1.45-.2-5.82-.3-13.09-.3h-14v22.54Z"/>
        <path d="M358.76,848.98h-19.51l-7.76-20.18h-35.51l-7.33,20.18h-19.03l34.6-88.83h18.97l35.57,88.83ZM325.73,813.83l-12.24-32.96-12,32.96h24.24ZM303.19,755.06l8.36-18.12h19.09l-16.66,18.12h-10.79Z"/>
        <path d="M364.63,805.11c0-9.05,1.35-16.64,4.06-22.78,2.02-4.52,4.78-8.58,8.27-12.18,3.49-3.59,7.32-6.26,11.48-8,5.53-2.34,11.92-3.51,19.15-3.51,13.09,0,23.56,4.06,31.42,12.18,7.86,8.12,11.79,19.41,11.79,33.87s-3.9,25.56-11.69,33.66c-7.8,8.1-18.22,12.15-31.27,12.15s-23.71-4.03-31.51-12.09c-7.8-8.06-11.69-19.16-11.69-33.3ZM383.12,804.5c0,10.06,2.32,17.68,6.97,22.87,4.64,5.19,10.54,7.79,17.69,7.79s13.02-2.58,17.6-7.73c4.58-5.15,6.88-12.88,6.88-23.18s-2.23-17.77-6.7-22.78c-4.46-5.01-10.39-7.51-17.78-7.51s-13.35,2.54-17.88,7.6c-4.52,5.07-6.79,12.71-6.79,22.93Z"/>
        <path d="M457.1,848.98v-16.18l46.66-57.62h-41.38v-15.03h65.02v13.94l-48.66,59.93h50.53v14.97h-72.17Z"/>
      </g>
    </g>
  </g>
</svg>